<?xml version="1.0"?><svg width="640" height="480" xmlns="http://www.w3.org/2000/svg" xmlns:xlink="http://www.w3.org/1999/xlink">
 <title>CLOUD</title>
 <defs>
  <linearGradient id="linearGradient6414">
   <stop stop-color="#ffffff" offset="0" id="stop6416"/>
   <stop stop-color="#89b9ff" stop-opacity="0" offset="1" id="stop6418"/>
  </linearGradient>
  <radialGradient r="181.09038" fy="328.42188" fx="325.26562" cy="328.42188" cx="325.26562" gradientTransform="matrix(1,0,0,0.5214751,0,157.15804)" gradientUnits="userSpaceOnUse" id="radialGradient2736" xlink:href="#linearGradient6414"/>
  <linearGradient gradientTransform="translate(195.94286,16.830344)" y2="490.77036" x2="372.45071" y1="425.21579" x1="393.01285" gradientUnits="userSpaceOnUse" id="linearGradient6125" xlink:href="#linearGradient5168"/>
  <linearGradient gradientTransform="translate(195.94286,16.830344)" y2="371.05057" x2="361.7919" y1="350.3981" x1="361.67862" gradientUnits="userSpaceOnUse" id="linearGradient6129" xlink:href="#linearGradient5168"/>
  <linearGradient id="linearGradient5168">
   <stop stop-color="#818181" id="stop5170" offset="0"/>
   <stop stop-color="#e4e4e4" id="stop5172" offset="1"/>
  </linearGradient>
  <linearGradient gradientTransform="translate(195.94286,16.830344)" y2="466.27859" x2="319.18427" y1="428.16779" x1="367.90091" gradientUnits="userSpaceOnUse" id="linearGradient6132" xlink:href="#linearGradient5168"/>
  <linearGradient id="linearGradient4477">
   <stop stop-color="#99df59" id="stop4479" offset="0"/>
   <stop stop-color="#1c830a" id="stop4481" offset="1"/>
  </linearGradient>
  <linearGradient id="linearGradient3366">
   <stop stop-color="#c3b08a" offset="0" id="stop3368"/>
   <stop stop-color="#6a5c43" offset="1" id="stop3370"/>
  </linearGradient>
  <linearGradient id="linearGradient3186">
   <stop stop-color="#c3b08a" id="stop3188" offset="0"/>
   <stop stop-color="#e7dfd1" id="stop3190" offset="1"/>
  </linearGradient>
  <linearGradient id="linearGradient3262">
   <stop stop-color="#b8d9e6" id="stop3264" offset="0"/>
   <stop stop-color="#2669a9" id="stop3266" offset="1"/>
  </linearGradient>
  <linearGradient id="linearGradient5997">
   <stop stop-color="#706985" id="stop5999" offset="0"/>
   <stop stop-color="#c8bfef" id="stop6001" offset="1"/>
  </linearGradient>
  <linearGradient id="linearGradient6013">
   <stop stop-color="#260c72" offset="0" id="stop6015"/>
   <stop stop-color="#c8bfef" offset="1" id="stop6017"/>
  </linearGradient>
  <linearGradient id="linearGradient3236">
   <stop stop-color="#cccccc" id="stop3238" offset="0"/>
   <stop stop-color="#f6f6f6" id="stop3240" offset="1"/>
  </linearGradient>
  <linearGradient id="linearGradient4534">
   <stop stop-color="#c7e0ec" id="stop4536" offset="0"/>
   <stop stop-color="#3b6bb1" id="stop4538" offset="1"/>
  </linearGradient>
  <linearGradient id="linearGradient4528">
   <stop stop-color="#c5d9e3" offset="0" id="stop4530"/>
   <stop stop-color="#3b6bb1" offset="1" id="stop4532"/>
  </linearGradient>
  <linearGradient id="linearGradient4542">
   <stop stop-color="#4879c2" id="stop4544" offset="0"/>
   <stop stop-color="#f5f8fc" id="stop4546" offset="1"/>
  </linearGradient>
  <filter height="200%" width="200%" y="-50%" x="-50%" id="svg_3_blur">
   <feGaussianBlur stdDeviation="8.8" in="SourceGraphic"/>
  </filter>
  <filter height="200%" width="200%" y="-50%" x="-50%" id="svg_2_blur">
   <feGaussianBlur stdDeviation="9.2" in="SourceGraphic"/>
  </filter>
  <filter height="200%" width="200%" y="-50%" x="-50%" id="svg_11_blur">
   <feGaussianBlur stdDeviation="10" in="SourceGraphic"/>
  </filter>
  <filter height="200%" width="200%" y="-50%" x="-50%" id="svg_10_blur">
   <feGaussianBlur stdDeviation="7.1" in="SourceGraphic"/>
  </filter>
  <filter height="200%" width="200%" y="-50%" x="-50%" id="svg_9_blur">
   <feGaussianBlur stdDeviation="9.3" in="SourceGraphic"/>
  </filter>
  <filter height="200%" width="200%" y="-50%" x="-50%" id="svg_8_blur">
   <feGaussianBlur stdDeviation="7" in="SourceGraphic"/>
  </filter>
  <filter height="200%" width="200%" y="-50%" x="-50%" id="svg_7_blur">
   <feGaussianBlur stdDeviation="7.3" in="SourceGraphic"/>
  </filter>
  <filter height="200%" width="200%" y="-50%" x="-50%" id="svg_6_blur">
   <feGaussianBlur stdDeviation="8.3" in="SourceGraphic"/>
  </filter>
  <filter height="200%" width="200%" y="-50%" x="-50%" id="svg_4_blur">
   <feGaussianBlur stdDeviation="10" in="SourceGraphic"/>
  </filter>
  <filter height="200%" width="200%" y="-50%" x="-50%" id="svg_5_blur">
   <feGaussianBlur stdDeviation="7.7" in="SourceGraphic"/>
  </filter>
 </defs>
 <metadata id="metadata3228">image/svg+xml</metadata>
 <g>
  <title>Ebene 1</title>
  <g opacity="0.75" id="layer1">
   <g id="g6444">
    <path fill="#007fff" fill-rule="nonzero" stroke="#000000" stroke-width="2.587" stroke-miterlimit="4" stroke-dashoffset="0" d="m307.188232,90.097824c-37.514343,0 -69.203003,23.923523 -79.062561,56.59375c-4.104431,-2.320892 -8.826355,-3.65625 -13.875,-3.65625c-15.612915,0 -28.28125,12.668335 -28.28125,28.28125c0,0.159027 -0.002625,0.310364 0,0.46875c-4.67688,-0.958191 -9.580566,-1.5 -14.65625,-1.5c-30.947021,0 -56.062469,19.018127 -56.0625,42.4375c0,23.419373 25.115479,42.437485 56.0625,42.437485c12.257324,0 23.582886,-3.00592 32.8125,-8.062469c5.512268,16.492126 21.067688,28.40625 39.40625,28.40625c12.426697,0 23.569397,-5.471313 31.1875,-14.125c7.390625,3.865997 16.081726,6.09375 25.375061,6.09375c12.644409,0 24.183655,-4.113098 32.84375,-10.875c11.669556,12.111359 28.828796,19.78125 47.968689,19.78125c23.480591,0 44.002136,-11.553284 55.031311,-28.6875c1.660339,0.243317 3.36377,0.375 5.093689,0.375c18.679749,0 33.812561,-14.690384 33.812561,-32.812515c0,-18.122131 -15.132813,-32.84375 -33.812561,-32.84375c-3.342529,0 -6.574524,0.497833 -9.625,1.375c-10.065552,-11.865021 -25.114868,-20.09082 -42.312439,-22.09375c-3.517883,-40.081909 -38.84906,-71.593765 -81.90625,-71.59375z" id="path5530"/>
    <path fill="#007fff" fill-rule="nonzero" stroke="#a3ced5" stroke-width="2.587" stroke-miterlimit="4" stroke-dashoffset="0" d="m305.39917,88.316422c-34.289673,0.102554 -67.813843,23.007568 -78.46875,55.71875c-15.509033,-7.864777 -36.341309,1.233398 -41.375,17.78125c-0.824646,2.509308 -1.366028,5.140045 -1.5,7.78125c-24.332703,-4.285217 -53.110291,3.677826 -66.15625,25.875c-8.7258,14.482056 -4.484863,34.126038 7.9375,45.062485c20.14502,19.158813 53.128845,21.182617 77.28125,9.812531c7.835876,20.926758 33.259155,32.765808 54.40625,25.062469c6.734863,-2.178925 12.870972,-6.496002 17.75,-11.3125c18.137146,8.749084 41.098389,7.194458 57.46875,-4.65625c26.258301,26.371246 74.153442,25.297913 98.843689,-2.65625c2.948792,-2.013733 3.790955,-7.903748 8.093811,-6.562469c19.944641,1.383942 38.725037,-16.468796 37.125,-36.625015c-0.652344,-20.760193 -22.112244,-36.665985 -42.25,-32.40625c-4.15332,1.720978 -5.744385,-4.419525 -9.15625,-5.96875c-9.656738,-8.483856 -22.474915,-13.106567 -34.5,-15.4375c-3.664917,-36.200745 -34.977417,-65.816971 -70.583374,-70.518661c-4.920654,-0.745209 -9.927185,-1.065353 -14.916626,-0.950089z" id="path6438"/>
   </g>
  </g>
  <ellipse opacity="0.75" filter="url(#svg_2_blur)" ry="27" rx="34" id="svg_2" cy="133" cx="282" stroke-width="5" stroke="#ffffff" fill="#ffffff"/>
  <ellipse opacity="0.75" filter="url(#svg_3_blur)" ry="25" rx="34" id="svg_3" cy="131" cx="322" stroke-width="5" stroke="#ffffff" fill="#ffffff"/>
  <ellipse opacity="0.75" filter="url(#svg_4_blur)" ry="26" rx="44" id="svg_4" cy="211" cx="188" stroke-width="5" stroke="#ffffff" fill="#ffffff"/>
  <ellipse opacity="0.75" filter="url(#svg_5_blur)" ry="15" rx="13" id="svg_5" cy="171" cx="213" stroke-width="5" stroke="#ffffff" fill="#ffffff"/>
  <ellipse opacity="0.75" filter="url(#svg_6_blur)" ry="23" rx="26" id="svg_6" cy="239" cx="235" stroke-width="5" stroke="#ffffff" fill="#ffffff"/>
  <ellipse opacity="0.75" filter="url(#svg_7_blur)" ry="25" rx="28" id="svg_7" cy="226" cx="293" stroke-width="5" stroke="#ffffff" fill="#ffffff"/>
  <ellipse opacity="0.75" filter="url(#svg_8_blur)" ry="29" rx="45" id="svg_8" cy="227" cx="367" stroke-width="5" stroke="#ffffff" fill="#ffffff"/>
  <ellipse opacity="0.75" filter="url(#svg_9_blur)" ry="24" rx="17" id="svg_9" cy="219" cx="426" stroke-width="5" stroke="#ffffff" fill="#ffffff"/>
  <ellipse opacity="0.75" filter="url(#svg_10_blur)" ry="19" rx="21" id="svg_10" cy="193" cx="390" stroke-width="5" stroke="#ffffff" fill="#ffffff"/>
  <ellipse opacity="0.75" filter="url(#svg_11_blur)" ry="52" rx="89" id="svg_11" cy="190" cx="305" stroke-width="5" stroke="#ffffff" fill="#ffffff"/>
 </g>
</svg>